<svg xmlns="http://www.w3.org/2000/svg" viewBox="0 0 512 512"><style>.a{fill:#FFE69F;}.b{fill:#E64C3C;}</style><path d="M415 203c0-88-71-159-159-159S97 115 97 203 168 362 256 362 415 291 415 203" fill="#F0C419"/><path d="M230 91c-4 0-8-3-9-7 -1-5 2-9 7-10 6-1 12-2 18-3 5 0 9 3 9 8 0 5-3 9-8 9 -5 0-11 1-16 2C231 91 231 91 230 91M298 96c-1 0-2 0-3-1 -5-2-10-3-15-4 -5-1-8-6-7-10 1-5 6-8 10-7 6 1 12 3 18 5 5 2 7 7 5 11C305 93 302 96 298 96M183 112c-3 0-5-1-7-4 -3-4-2-9 2-12 5-4 10-7 16-10 4-2 10-1 12 4 2 4 1 10-4 12 -5 3-9 5-14 9C187 111 185 112 183 112M342 123c-2 0-4-1-6-2 -4-4-8-7-12-10 -4-3-5-8-2-12 3-4 8-5 12-2 5 4 10 8 14 12 4 3 4 9 0 12C346 122 344 123 342 123M149 150c-2 0-3 0-4-1 -4-2-6-8-3-12 3-5 7-10 10-15 3-4 9-5 12-2 4 3 5 9 2 12 -3 4-6 9-9 13C155 149 152 150 149 150M370 165c-3 0-7-2-8-5 -2-5-4-10-7-14 -2-4-1-10 3-12s10-1 12 3c3 5 6 11 8 17 2 5 0 10-5 12C373 165 372 165 370 165M133 199c0 0-1 0-1 0 -5 0-8-5-8-10 1-6 2-12 3-18 1-5 6-8 11-6 5 1 8 6 6 11 -1 5-2 10-3 16C141 196 138 199 133 199M380 216h0c-5 0-9-4-9-9 0-1 0-2 0-4 0-4 0-8-1-12 -1-5 3-9 8-10 5-1 9 3 10 8 1 5 1 9 1 14 0 1 0 3 0 4C388 212 384 216 380 216M138 250c-4 0-7-2-8-6 -2-6-3-12-4-18 -1-5 2-9 7-10 5-1 9 2 10 7 1 5 2 10 4 16 2 5-1 10-6 11C140 250 139 250 138 250M367 266c-1 0-3 0-4-1 -4-2-6-7-4-12 2-5 4-10 6-15 1-5 6-7 11-6 5 1 7 6 6 11 -2 6-4 12-7 17C374 264 371 266 367 266M164 295c-2 0-5-1-7-3 -4-5-8-9-11-15 -3-4-2-10 2-12 4-3 10-2 12 2 3 4 6 9 10 13 3 4 3 9-1 12C168 294 166 295 164 295M336 306c-3 0-5-1-7-3 -3-4-3-9 1-12 4-3 8-7 11-11 3-4 9-4 12-1 4 3 4 9 1 12 -4 5-9 9-13 13C340 306 338 306 336 306M206 325c-1 0-2 0-4-1 -6-2-11-5-16-9 -4-3-5-8-3-12 3-4 8-5 12-3 5 3 9 5 14 8 4 2 6 7 4 12C212 323 209 325 206 325M291 331c-4 0-7-3-8-6 -1-5 1-10 6-11 5-1 10-3 15-6 4-2 10 0 12 4 2 4 0 10-4 12 -6 3-11 5-17 6C292 330 291 331 291 331M256 335h0c-6 0-12 0-18-1 -5-1-8-5-8-10 1-5 5-8 10-8 5 1 11 1 16 1 5 0 9 4 9 9C265 331 261 335 256 335" class="a"/><path d="M256 44c37 0 70 13 97 33V0H159v77C186 57 219 44 256 44" class="b"/><path d="M256 362c-37 0-70-13-97-33V512L256 415 353 512V329C326 349 293 362 256 362" class="b"/><path d="M265 274c-5 0-9-4-9-9v-94l-19 29c-3 4-8 5-12 2 -4-3-5-8-2-12l35-53c2-3 6-5 10-4 4 1 6 5 6 8v124C274 270 270 274 265 274" class="a"/></svg>